name C:\Users\u0101727\Documents\MyRepositories\upper-imu-dc\Results\main_tracking\Case_10\kinematics.mot
datacolumns 10
datarows 47
range 2.00000000 2.46000000
endheader 
time	clav_prot	clav_elev	scapula_abduction	scapula_elevation	scapula_upward_rot	scapula_winging	plane_elv	shoulder_elv	axial_rot	
          2.00000000	        -31.05718374	          9.13571034	         -0.15860116	         -1.70014767	         54.87818359	         -7.38076555	         66.99636977	         72.50949210	        -19.78060206	
          2.01000000	        -31.26253748	          9.27593594	         -0.22706887	         -1.63699164	         55.27542979	         -7.49128896	         66.72376738	         72.82643140	        -19.97027255	
          2.02000000	        -31.46300898	          9.41131024	         -0.29053851	         -1.57573918	         55.66626234	         -7.59891751	         66.45382729	         73.13763841	        -20.07013163	
          2.03000000	        -31.65966496	          9.54250799	         -0.35195812	         -1.51599942	         56.04971448	         -7.70400817	         66.19235577	         73.44397118	        -20.05548510	
          2.04000000	        -31.85347308	          9.67019877	         -0.41415269	         -1.45738701	         56.42475859	         -7.80692270	         65.94364236	         73.74683279	        -19.91945834	
          2.05000000	        -32.04495263	          9.79475945	         -0.47896669	         -1.39969858	         56.79047848	         -7.90787427	         65.70955099	         74.04787796	        -19.67413666	
          2.06000000	        -32.23401530	          9.91603380	         -0.54672037	         -1.34306891	         57.14628352	         -8.00682994	         65.48932125	         74.34863496	        -19.34672227	
          2.07000000	        -32.42004931	         10.03323580	         -0.61615171	         -1.28804333	         57.49210948	         -8.10350812	         65.28012468	         74.65013693	        -18.97201179	
          2.08000000	        -32.60218457	         10.14502596	         -0.68481442	         -1.23554090	         57.82852538	         -8.19746225	         65.07809154	         74.95268574	        -18.58412214	
          2.09000000	        -32.77960261	         10.24971468	         -0.74973603	         -1.18673009	         58.15667844	         -8.28820269	         64.87934773	         75.25586113	        -18.21078314	
          2.10000000	        -32.95177219	         10.34551310	         -0.80810428	         -1.14286446	         58.47807381	         -8.37530620	         64.68068768	         75.55881078	        -17.87229443	
          2.11000000	        -33.11857191	         10.43077889	         -0.85782083	         -1.10511532	         58.79427784	         -8.45849260	         64.47979441	         75.86070610	        -17.58451405	
          2.12000000	        -33.28033153	         10.50425941	         -0.89785118	         -1.07440553	         59.10669286	         -8.53768154	         64.27520845	         76.16110588	        -17.36231757	
          2.13000000	        -33.43783657	         10.56534670	         -0.92836080	         -1.05123860	         59.41651085	         -8.61304684	         64.06632519	         76.45998961	        -17.21949637	
          2.14000000	        -33.59230255	         10.61430694	         -0.95064486	         -1.03554614	         59.72483336	         -8.68506054	         63.85352209	         76.75743134	        -17.16390504	
          2.15000000	        -33.74528550	         10.65239719	         -0.96684631	         -1.02660682	         60.03286108	         -8.75449493	         63.63827740	         77.05309298	        -17.19021523	
          2.16000000	        -33.89850074	         10.68180164	         -0.97947581	         -1.02307806	         60.34205372	         -8.82235637	         63.42305569	         77.34578747	        -17.27427829	
          2.17000000	        -34.05357114	         10.70539261	         -0.99084623	         -1.02313774	         60.65417667	         -8.88975565	         63.21084385	         77.63333996	        -17.37268452	
          2.18000000	        -34.21177517	         10.72638201	         -1.00262400	         -1.02469758	         60.97117007	         -8.95774954	         63.00440447	         77.91288245	        -17.42927520	
          2.19000000	        -34.37387413	         10.74793754	         -1.01565474	         -1.02564613	         61.29484917	         -9.02719788	         62.80546061	         78.18151963	        -17.38732520	
          2.20000000	        -34.54005985	         10.77281723	         -1.03006290	         -1.02409156	         61.62654083	         -9.09866636	         62.61408975	         78.43710271	        -17.20297976	
          2.21000000	        -34.71001027	         10.80305634	         -1.04550157	         -1.01858147	         61.96678679	         -9.17238220	         62.42854543	         78.67882437	        -16.85478628	
          2.22000000	        -34.88301410	         10.83974433	         -1.06143318	         -1.00827090	         62.31518771	         -9.24823836	         62.24555470	         78.90750501	        -16.34669009	
          2.23000000	        -35.05812384	         10.88293971	         -1.07738417	         -0.99300087	         62.67038791	         -9.32584034	         62.06095367	         79.12560531	        -15.70525528	
          2.24000000	        -35.23431154	         10.93177420	         -1.09316301	         -0.97324870	         63.03018068	         -9.40459484	         61.87043374	         79.33703916	        -14.97361091	
          2.25000000	        -35.41061416	         10.98475434	         -1.10902588	         -0.94994212	         63.39172799	         -9.48383392	         61.67018418	         79.54681965	        -14.20451322	
          2.26000000	        -35.58623822	         11.04017888	         -1.12572625	         -0.92418836	         63.75187585	         -9.56294360	         61.45726938	         79.76055381	        -13.45398209	
          2.27000000	        -35.76059408	         11.09653684	         -1.14439993	         -0.89700662	         64.10751076	         -9.64145518	         61.22969117	         79.98383804	        -12.77609134	
          2.28000000	        -35.93325623	         11.15276825	         -1.16630692	         -0.86914370	         64.45587996	         -9.71907340	         60.98620639	         80.22164749	        -12.21898616	
          2.29000000	        -36.10387926	         11.20834064	         -1.19251653	         -0.84100808	         64.79481762	         -9.79564558	         60.72604081	         80.47781332	        -11.82199587	
          2.30000000	        -36.27211215	         11.26316618	         -1.22363311	         -0.81271072	         65.12286017	         -9.87109703	         60.44863917	         80.75464453	        -11.61360161	
          2.31000000	        -36.43754576	         11.31741999	         -1.25962624	         -0.78417592	         65.43927008	         -9.94536178	         60.15354964	         81.05270280	        -11.60987368	
          2.32000000	        -36.59971721	         11.37132121	         -1.29979741	         -0.75528307	         65.74400222	        -10.01833346	         59.84050347	         81.37070849	        -11.81291949	
          2.33000000	        -36.75818823	         11.42493052	         -1.34290729	         -0.72600495	         66.03763886	        -10.08985590	         59.50971806	         81.70556116	        -12.20909771	
          2.34000000	        -36.91270339	         11.47801592	         -1.38748289	         -0.69650803	         66.32130170	        -10.15976819	         59.16239816	         82.05248582	        -12.76729508	
          2.35000000	        -37.06340656	         11.53003467	         -1.43228771	         -0.66718142	         66.59653387	        -10.22800526	         58.80131580	         82.40533945	        -13.43823620	
          2.36000000	        -37.21104667	         11.58024563	         -1.47685069	         -0.63857957	         66.86513882	        -10.29472611	         58.43123389	         82.75710718	        -14.15626481	
          2.37000000	        -37.35706201	         11.62790199	         -1.52185414	         -0.61130415	         67.12896685	        -10.36040811	         58.05887530	         83.10057851	        -14.84492872	
          2.38000000	        -37.50344343	         11.67242297	         -1.56916991	         -0.58588521	         67.38965559	        -10.42583845	         57.69222906	         83.42913359	        -15.42674617	
          2.39000000	        -37.65236238	         11.71345591	         -1.62145298	         -0.56271897	         67.64837042	        -10.49197300	         57.33925420	         83.73749336	        -15.83560081	
          2.40000000	        -37.80567179	         11.75081593	         -1.68139219	         -0.54207614	         67.90564336	        -10.55970130	         57.00636564	         84.02222889	        -16.02807620	
          2.41000000	        -37.96446441	         11.78436988	         -1.75088313	         -0.52414687	         68.16140258	        -10.62960944	         56.69723591	         84.28188211	        -15.98975394	
          2.42000000	        -38.12884986	         11.81395870	         -1.83044161	         -0.50907088	         68.41518242	        -10.70183504	         56.41230393	         84.51673619	        -15.73487967	
          2.43000000	        -38.29801132	         11.83942542	         -1.91907894	         -0.49691508	         68.66640270	        -10.77606569	         56.14906955	         84.72841467	        -15.30070057	
          2.44000000	        -38.47049483	         11.86076018	         -2.01466095	         -0.48759163	         68.91459692	        -10.85167497	         55.90298322	         84.91947301	        -14.73903455	
          2.45000000	        -38.64461412	         11.87830561	         -2.11458662	         -0.48074851	         69.15951961	        -10.92794104	         55.66861030	         85.09306273	        -14.10740982	
          2.46000000	        -38.81883520	         11.89291364	         -2.21652283	         -0.47569620	         69.40112259	        -11.00426666	         55.44074735	         85.25268393	        -13.46139967	
